<mxfile host="app.diagrams.net" modified="2021-08-11T17:55:58.975Z" agent="5.0 (Windows NT 10.0; Win64; x64) AppleWebKit/537.36 (KHTML, like Gecko) Chrome/92.0.4515.131 Safari/537.36 Edg/92.0.902.67" etag="BbSIvMsUHbWryhPwf4Gz" version="14.9.5" type="github">
  <diagram id="jcTOxEiZp0Malr8Zv1Tt" name="Page-1">
    <mxGraphModel dx="868" dy="482" grid="1" gridSize="10" guides="1" tooltips="1" connect="1" arrows="1" fold="1" page="1" pageScale="1" pageWidth="827" pageHeight="1169" math="0" shadow="0">
      <root>
        <mxCell id="0" />
        <mxCell id="1" parent="0" />
        <mxCell id="y26HUDfeUxLxe6HiMWJv-1" value="" style="rounded=1;whiteSpace=wrap;html=1;" vertex="1" parent="1">
          <mxGeometry x="370" y="20" width="84" height="20" as="geometry" />
        </mxCell>
        <mxCell id="y26HUDfeUxLxe6HiMWJv-2" value="" style="endArrow=none;html=1;" edge="1" parent="1">
          <mxGeometry width="50" height="50" relative="1" as="geometry">
            <mxPoint x="413" y="90" as="sourcePoint" />
            <mxPoint x="413" y="40" as="targetPoint" />
            <Array as="points">
              <mxPoint x="413" y="80" />
            </Array>
          </mxGeometry>
        </mxCell>
        <mxCell id="y26HUDfeUxLxe6HiMWJv-16" style="edgeStyle=orthogonalEdgeStyle;rounded=0;orthogonalLoop=1;jettySize=auto;html=1;exitX=0.5;exitY=1;exitDx=0;exitDy=0;" edge="1" parent="1" source="y26HUDfeUxLxe6HiMWJv-6" target="y26HUDfeUxLxe6HiMWJv-11">
          <mxGeometry relative="1" as="geometry" />
        </mxCell>
        <mxCell id="y26HUDfeUxLxe6HiMWJv-6" value="" style="shape=parallelogram;perimeter=parallelogramPerimeter;whiteSpace=wrap;html=1;fixedSize=1;size=10;" vertex="1" parent="1">
          <mxGeometry x="370" y="80" width="100" height="30" as="geometry" />
        </mxCell>
        <mxCell id="y26HUDfeUxLxe6HiMWJv-7" value="ENTRADA" style="text;html=1;strokeColor=none;fillColor=none;align=center;verticalAlign=middle;whiteSpace=wrap;rounded=0;" vertex="1" parent="1">
          <mxGeometry x="392" y="20" width="40" height="20" as="geometry" />
        </mxCell>
        <mxCell id="y26HUDfeUxLxe6HiMWJv-8" value="NOTA1,&amp;nbsp;" style="text;html=1;strokeColor=none;fillColor=none;align=center;verticalAlign=middle;whiteSpace=wrap;rounded=0;" vertex="1" parent="1">
          <mxGeometry x="380" y="85" width="40" height="20" as="geometry" />
        </mxCell>
        <mxCell id="y26HUDfeUxLxe6HiMWJv-9" value="NOTA2" style="text;html=1;strokeColor=none;fillColor=none;align=center;verticalAlign=middle;whiteSpace=wrap;rounded=0;" vertex="1" parent="1">
          <mxGeometry x="420" y="85" width="40" height="20" as="geometry" />
        </mxCell>
        <mxCell id="y26HUDfeUxLxe6HiMWJv-21" style="edgeStyle=orthogonalEdgeStyle;rounded=0;orthogonalLoop=1;jettySize=auto;html=1;exitX=0.5;exitY=1;exitDx=0;exitDy=0;entryX=0.5;entryY=0;entryDx=0;entryDy=0;" edge="1" parent="1" source="y26HUDfeUxLxe6HiMWJv-11" target="y26HUDfeUxLxe6HiMWJv-18">
          <mxGeometry relative="1" as="geometry" />
        </mxCell>
        <mxCell id="y26HUDfeUxLxe6HiMWJv-11" value="" style="rounded=0;whiteSpace=wrap;html=1;" vertex="1" parent="1">
          <mxGeometry x="370" y="150" width="100" height="40" as="geometry" />
        </mxCell>
        <mxCell id="y26HUDfeUxLxe6HiMWJv-17" value="MÉDIA" style="text;html=1;strokeColor=none;fillColor=none;align=center;verticalAlign=middle;whiteSpace=wrap;rounded=0;" vertex="1" parent="1">
          <mxGeometry x="400" y="160" width="40" height="20" as="geometry" />
        </mxCell>
        <mxCell id="y26HUDfeUxLxe6HiMWJv-18" value="&lt;span style=&quot;white-space: pre&quot;&gt;	&lt;/span&gt;&lt;font&gt;EurOR&lt;/font&gt;&lt;font&gt;MAMÃ&lt;/font&gt;&lt;font&gt;MAMÃ&lt;/font&gt;&lt;font&gt;MAMÃ&lt;/font&gt;" style="rhombus;whiteSpace=wrap;html=1;" vertex="1" parent="1">
          <mxGeometry x="380" y="210" width="80" height="40" as="geometry" />
        </mxCell>
      </root>
    </mxGraphModel>
  </diagram>
</mxfile>
